<?xml version="1.0" encoding="utf-8"?>
<!-- Generator: Adobe Illustrator 15.0.2, SVG Export Plug-In . SVG Version: 6.00 Build 0)  -->
<!DOCTYPE svg PUBLIC "-//W3C//DTD SVG 1.1//EN" "http://www.w3.org/Graphics/SVG/1.1/DTD/svg11.dtd">
<svg version="1.1" id="Layer_1" xmlns="http://www.w3.org/2000/svg" xmlns:xlink="http://www.w3.org/1999/xlink" x="0px" y="0px"
	 width="640px" height="640px" viewBox="0 0 640 640" enable-background="new 0 0 640 640" xml:space="preserve">
<ellipse id="Background" display="none" fill="#CCCCCC" stroke="#000000" stroke-width="5" stroke-linecap="round" stroke-miterlimit="10" cx="320" cy="352.666" rx="281.667" ry="402.667"/>
<g id="XMLID_1_">
	<g>
		<path fill="#FFFFFF" d="M415.27,236.92c-15.35-4.58-26.46,1.13-34.02,15.24c-0.13,0.18-0.25,0.36-0.38,0.54
			c-9.88,2.24-22.92,1.04-33.53,1.04c-2.93,0-5.83-0.04-8.72-0.12c-68.44-1.91-124.89-27.4-117.23-122.43
			c2.1-26.07,11.48-60.26,34.35-79.93c23.49-20.2,53.83-37.98,91.5-40.55c61.229-4.19,121.52,9.27,126.43,120.48
			c0.16,32.79-6.29,58.4-36.2,90.37c0,0,0.021,0.54,0,14.12c26.11,14.8,33.931,22.27,47.851,45.62
			c65.08,109.19,67.64,207.26,36.62,273.601c-7.511,16.06-16.99,30.27-28.03,42.319C444.2,651.49,356.34,639.23,318.59,554.9
			c-7.92-17.67-13.63-38.5-16.33-62.54l-0.08-0.011c0.97-12.239,2.05-25.47,3.25-39.729v-0.01c-21.82-0.551-46.84-1.011-75.45-0.591
			c-2.06,0.03-6.01,0.471-10.51,0.051c-2.68-0.25-5.56-0.801-8.36-1.92c-12.74-4.811-21.86-10.181-27.91-15.66
			c-13.87-12.58-11.65-25.74-0.13-33.971c1.24-0.89,2.58-1.72,4.03-2.489c5.07-2.681,11.35-4.58,18.49-5.391
			c-17.6-15.489,4.13-18.85,20.27-16.909c4.95,0.59,9.37,1.68,11.97,3.079c4.27,2.301,9.91,4.7,14.84,7.391l61.5-2.3l38.74-6.15
			l16.27-2.59h0.03l-0.8-56.08c1.12-29.63,5.149-52.6,12.84-66.92C391.78,237.08,395.67,234.11,415.27,236.92z"/>
		<path fill="#FFFFFF" d="M368.41,319.08c-0.63,16.689-0.33,35.51,0.77,56.08l-16.27,2.59c-6.5-15.52-14.88-27.77-24.25-36.97
			l0.03-0.03c0.079-41.28,1.189-61.59,9.93-87.12v-0.01c2.89,0.08,5.79,0.12,8.72,0.12c10.61,0,23.65,1.2,33.53-1.04
			c0.13-0.18,0.25-0.36,0.38-0.54C373.56,266.48,369.53,289.45,368.41,319.08z"/>
		<path fill="#FFFFFF" d="M352.91,377.75l-38.74,6.15l-61.5,2.3c-4.93-2.69-10.57-5.09-14.84-7.391
			c-2.6-1.399-7.02-2.489-11.97-3.079c0-34.74,22.73-55.371,49.93-56.871c17.39-0.96,36.6,5.9,52.87,21.92
			C338.03,349.98,346.41,362.23,352.91,377.75z"/>
		<path fill="#FFFFFF" d="M305.43,452.61v0.01c-1.2,14.26-2.28,27.49-3.25,39.729c-1.99,24.811-3.59,45.551-5.03,62.551
			c-1.54,18.119-2.91,31.979-4.4,41.97c-0.89,6.01-3.25,23.88-8.94,29.11c-2.19,0.729-11.67,1.739-21.7,2.579
			c-10.03,0.83-20.59,1.48-24.92,1.48h-72.7c-28.11-0.93-38.85-8.92-35.71-18.71c4.11-12.86,32.14-28.811,76.2-35.88
			c7.28-35.83,6.25-52.69,14.46-123.09l0.03-0.29c4.5,0.42,8.45-0.021,10.51-0.051C258.59,451.6,283.61,452.06,305.43,452.61z"/>
		<path fill="#FFFFFF" d="M275.79,318.86c-27.2,1.5-49.93,22.13-49.93,56.871c-16.14-1.94-37.87,1.42-20.27,16.909
			c-7.14,0.811-13.42,2.71-18.49,5.391c1.01-17.42,3.56-31.3,8.25-42.261C206.69,329.21,230.62,319.84,275.79,318.86z"/>
		<path fill="#FFFFFF" d="M171.39,554.9c1.74-13.311,5.17-44.92,11.81-120.41c6.05,5.479,15.17,10.85,27.91,15.66
			c2.8,1.119,5.68,1.67,8.36,1.92l-0.03,0.29c-8.21,70.399-7.18,87.26-14.46,123.09c-44.06,7.069-72.09,23.02-76.2,35.88l-1.09-0.3
			h-15.65c-17.17-15.34,19.94-39.261,57.67-46.23C169.71,564.52,170.03,565.4,171.39,554.9z"/>
		<path fill="#FFFFFF" d="M195.17,355.69l0.18,0.079c-4.69,10.961-7.24,24.841-8.25,42.261c-1.45,0.77-2.79,1.6-4.03,2.489v-0.01
			C162.58,381.87,167.62,360.94,195.17,355.69z"/>
	</g>
	<g>
		<path fill="none" stroke="#000000" stroke-width="5" stroke-linecap="round" stroke-miterlimit="10" d="M369.18,375.16
			c-1.1-20.57-1.399-39.391-0.77-56.08c1.12-29.63,5.149-52.6,12.84-66.92c7.56-14.11,18.67-19.82,34.02-15.24"/>
		<path fill="none" stroke="#000000" stroke-width="5" stroke-linecap="round" stroke-miterlimit="10" d="M252.67,386.2
			c-4.93-2.69-10.57-5.09-14.84-7.391c-2.6-1.399-7.02-2.489-11.97-3.079c-16.14-1.94-37.87,1.42-20.27,16.909"/>
		
			<polyline fill="none" stroke="#000000" stroke-width="5" stroke-linecap="round" stroke-linejoin="round" stroke-miterlimit="10" points="
			368.41,318.86 368.41,319.08 369.21,375.16 369.18,375.16 352.91,377.75 314.17,383.9 252.67,386.2 		"/>
		<path fill="none" stroke="#000000" stroke-width="5" stroke-linecap="round" stroke-miterlimit="10" d="M437.93,300.63
			C452.53,463.06,437.99,456,305.43,452.61c-21.82-0.551-46.84-1.011-75.45-0.591c-2.06,0.03-6.01,0.471-10.51,0.051
			c-2.68-0.25-5.56-0.801-8.36-1.92"/>
		<path fill="none" stroke="#000000" stroke-width="5" stroke-linecap="round" stroke-miterlimit="10" d="M204.98,575.45
			c-44.06,7.069-72.09,23.02-76.2,35.88c-3.14,9.79,7.6,17.78,35.71,18.71h72.7"/>
		<path fill="none" stroke="#000000" stroke-width="5" stroke-linecap="round" stroke-linejoin="round" stroke-miterlimit="10" d="
			M169.71,564.8c-37.73,6.97-74.84,30.891-57.67,46.23h15.65"/>
		<path fill="none" stroke="#000000" stroke-width="5" stroke-miterlimit="10" d="M225.86,375.73c0-34.74,22.73-55.371,49.93-56.871
			c17.39-0.96,36.6,5.9,52.87,21.92c9.37,9.2,17.75,21.45,24.25,36.97"/>
		<path fill="none" stroke="#000000" stroke-width="5" stroke-linecap="round" stroke-miterlimit="10" d="M187.1,398.05
			c0-0.01,0-0.01,0-0.02c1.01-17.42,3.56-31.3,8.25-42.261c11.34-26.56,35.27-35.93,80.44-36.91"/>
		<path fill="none" stroke="#000000" stroke-width="5" stroke-linecap="round" stroke-miterlimit="10" d="M338.62,253.63
			c-8.74,25.53-9.851,45.84-9.93,87.12"/>
		<path fill="none" stroke="#000000" stroke-width="5" stroke-linecap="round" stroke-miterlimit="10" d="M195.17,355.69
			c-27.55,5.25-32.59,26.18-12.1,44.819"/>
		<path fill="none" stroke="#000000" stroke-width="5" stroke-linecap="round" stroke-linejoin="round" stroke-miterlimit="10" d="
			M305.43,452.62c-1.2,14.26-2.28,27.49-3.25,39.729c-1.99,24.811-3.59,45.551-5.03,62.551c-1.54,18.119-2.91,31.979-4.4,41.97
			c-0.89,6.01-3.25,23.88-8.94,29.11c-2.19,0.729-11.67,1.739-21.7,2.579c-10.03,0.83-20.59,1.48-24.92,1.48"/>
		<path fill="none" stroke="#000000" stroke-width="5" stroke-linecap="round" stroke-miterlimit="10" d="M205.59,392.64
			c-7.14,0.811-13.42,2.71-18.49,5.391c-1.45,0.77-2.79,1.6-4.03,2.489c-11.52,8.23-13.74,21.391,0.13,33.971
			c6.05,5.479,15.17,10.85,27.91,15.66"/>
		<path fill="none" stroke="#000000" stroke-width="5" stroke-linecap="round" stroke-miterlimit="10" d="M183.2,434.49
			c-6.64,75.49-10.07,107.1-11.81,120.41c-1.36,10.5-1.68,9.619-1.68,9.899"/>
		<path fill="none" stroke="#000000" stroke-width="5" stroke-miterlimit="10" d="M219.44,452.36
			c-8.21,70.399-7.18,87.26-14.46,123.09"/>
		<path fill="none" stroke="#000000" stroke-width="5" stroke-linecap="round" stroke-linejoin="round" stroke-miterlimit="10" d="
			M302.26,492.36c2.7,24.04,8.41,44.87,16.33,62.54c37.75,84.33,125.61,96.59,175.32,42.319c11.04-12.05,20.52-26.26,28.03-42.319
			c31.02-66.341,28.46-164.41-36.62-273.601c-13.92-23.35-21.74-30.82-47.851-45.62c0.021-13.58,0-14.12,0-14.12"/>
		<polyline fill="none" stroke="#000000" stroke-width="5" stroke-miterlimit="10" points="95.79,554.9 171.39,554.9 171.4,554.9 		
			"/>
		
			<line fill="none" stroke="#000000" stroke-width="5" stroke-linecap="round" stroke-miterlimit="10" x1="297.19" y1="554.9" x2="318.59" y2="554.9"/>
		<line fill="none" stroke="#000000" stroke-width="5" stroke-miterlimit="10" x1="521.94" y1="554.9" x2="544.21" y2="554.9"/>
		<path fill="none" stroke="#000000" stroke-width="5" stroke-linecap="round" stroke-linejoin="round" stroke-miterlimit="10" d="
			M473.67,131.19C468.76,19.98,408.47,6.52,347.24,10.71c-37.67,2.57-68.01,20.35-91.5,40.55c-22.87,19.67-32.25,53.86-34.35,79.93
			c-7.66,95.03,48.79,120.52,117.23,122.43c2.89,0.08,5.79,0.12,8.72,0.12c10.61,0,23.65,1.2,33.53-1.04
			c0.13-0.18,0.25-0.36,0.38-0.54c10.53-15.08,14.42-18.05,34.02-15.24c0.011,0,0.03,0,0.04,0.01c0.011,0,0.03,0,0.04,0
			c1.16-0.72,3.051-1.95,4.19-2.71"/>
		<path fill="none" stroke="#000000" stroke-width="5" stroke-miterlimit="10" d="M473.67,131.19c0.16,32.79-6.29,58.4-36.2,90.37"
			/>
	</g>
</g>
<g id="Face">
	<g>
		<path fill="none" stroke="#000000" stroke-width="5" stroke-linecap="round" stroke-miterlimit="10" d="M336.089,147.926
			c-0.031-7.495-0.392-4.566-1.231-14.816"/>
		<path fill="none" stroke="#000000" stroke-width="5" stroke-linecap="round" stroke-miterlimit="10" d="M336.182,146.959
			c-0.758-8.863-0.035-0.329-0.64-7.506"/>
	</g>
	<g>
		<path fill="none" stroke="#000000" stroke-width="5" stroke-linecap="round" stroke-miterlimit="10" d="M261.948,157.268
			c-0.029-7.495-0.391-4.566-1.229-14.816"/>
		<path fill="none" stroke="#000000" stroke-width="5" stroke-linecap="round" stroke-miterlimit="10" d="M262.044,156.301
			c-0.761-8.863-0.036-0.329-0.642-7.506"/>
	</g>
	<path fill="none" stroke="#000000" stroke-width="5" stroke-linecap="round" stroke-miterlimit="10" d="M369.213,103.153
		c-18.005,19.882-47.68,11.601-52.753-16.693"/>
	<path fill="none" stroke="#000000" stroke-width="5" stroke-linecap="round" stroke-miterlimit="10" d="M270.312,108.313
		c-8.206,10.792-11.119,20.474-35.273,16.563"/>
	<path fill="none" stroke="#000000" stroke-width="5" stroke-linecap="round" stroke-miterlimit="10" d="M270.312,108.313
		c-8.363,17.448-10.121,23.311-35.273,16.563"/>
	<path fill="none" stroke="#000000" stroke-width="5" stroke-linecap="round" stroke-miterlimit="10" d="M368.616,103.712
		c-21.836,22.049-46.253,15.09-52.156-17.252"/>
	<path fill="none" stroke="#000000" stroke-width="5" stroke-linecap="round" stroke-miterlimit="10" d="M310.34,218.425
		c-6.365-2.454-3.989,3.067-12.729,0"/>
</g>
</svg>
